<svg width="24" height="24" viewBox="0 0 24 24" fill="none" xmlns="http://www.w3.org/2000/svg">
<circle cx="12" cy="12" r="1.75" stroke="#FCFCFC" stroke-width="0.5"/>
<path d="M13.8068 15H10.1932C9.60643 15 9.06109 14.6977 8.75013 14.2002L5.86875 9.59C5.67036 9.27257 5.24285 9.19286 4.9434 9.41745C4.68898 9.60827 4.61358 9.95712 4.7665 10.236L8.25113 16.5903C8.58073 17.1913 8.79366 17.8493 8.87869 18.5295L9.46685 23.2348C9.48579 23.3863 9.61458 23.5 9.76727 23.5H14.4641C14.6274 23.5 14.7652 23.3784 14.7855 23.2163L15.378 18.4761C15.4587 17.8304 15.6527 17.2041 15.9512 16.6259L19.2494 10.2356C19.3941 9.95524 19.3152 9.61142 19.0629 9.42215C18.76 9.19503 18.3277 9.27564 18.1271 9.59664L15.2499 14.2002C14.9389 14.6977 14.3936 15 13.8068 15Z" stroke="#FCFCFC" stroke-width="0.5" stroke-linecap="round" stroke-linejoin="round"/>
<path d="M11.75 15L10.8116 18.7537C10.7729 18.9085 10.8104 19.0725 10.9125 19.195L11.6159 20.0391C11.8158 20.2789 12.1842 20.2789 12.3841 20.0391L13.0875 19.195C13.1896 19.0725 13.2271 18.9085 13.1884 18.7537L12.25 15" stroke="#FCFCFC" stroke-width="0.5" stroke-linecap="round" stroke-linejoin="round"/>
<path d="M11.25 3.25V8.5H13V3.25H14.25L12.25 1L10 3.25H11.25Z" stroke="#FCFCFC" stroke-width="0.5" stroke-linecap="round" stroke-linejoin="round"/>
<path d="M19.75 7H14V8.5H21.25V3.5H22.5L20.5 1L18.25 3.5H19.75V7Z" stroke="#FCFCFC" stroke-width="0.5" stroke-linecap="round" stroke-linejoin="round"/>
<path d="M4.25 7H10V8.5H2.75V3.5H1.5L3.5 1L5.75 3.5H4.25V7Z" stroke="#FCFCFC" stroke-width="0.5" stroke-linecap="round" stroke-linejoin="round"/>
</svg>
