<svg width="16" height="16" viewBox="0 0 16 16" fill="none" xmlns="http://www.w3.org/2000/svg">
<path d="M6.66667 13H1C1 13.9333 1.5 14.3333 2.33333 14.3333H12.6667C13.8667 14.3333 14.0556 13.4444 14 13H8.66667C8.61111 13.2222 8.33333 13.6667 7.66667 13.6667C7 13.6667 6.72222 13.2222 6.66667 13Z" stroke="#FCFCFC" stroke-width="0.333333"/>
<path d="M8.33325 9.33334H10.6666C10.8507 9.33334 10.9999 9.48258 10.9999 9.66668V10H8.33325V9.33334Z" fill="#F0F2F4" fill-opacity="0.4"/>
<path d="M1.66675 13V6.33334C1.66675 5.78106 2.11446 5.33334 2.66675 5.33334H12.3334C12.8857 5.33334 13.3334 5.78106 13.3334 6.33334V13" stroke="#FCFCFC" stroke-width="0.333333"/>
<circle cx="3.66675" cy="2.66666" r="1.83333" stroke="#FCFCFC" stroke-width="0.333333"/>
<path d="M5.5 2.00001H11.3333C11.5 1.66668 11.7 0.833344 13.1667 0.833344C12.5556 1.27779 11.8333 2.00001 12.1667 2.83334C12.5238 3.72606 13.1667 3.83334 13.1667 3.83334C12.7778 3.94445 12 4.10001 11.3333 3.16668H5.5" stroke="#FCFCFC" stroke-width="0.333333" stroke-linecap="round" stroke-linejoin="round"/>
<path d="M4.33325 6.99999C4.33325 6.8159 4.48249 6.66666 4.66659 6.66666H6.99992C7.18401 6.66666 7.33325 6.81589 7.33325 6.99999V12H4.33325V6.99999Z" fill="#ECEEF2" fill-opacity="0.2"/>
<path d="M5.83341 6.99999C5.83341 6.90794 5.90803 6.83332 6.00008 6.83332H8.33341C8.42546 6.83332 8.50008 6.90794 8.50008 6.99999V11.8333H5.83341V6.99999Z" stroke="#FCFCFC" stroke-width="0.333333"/>
<path d="M8.49992 9.16667H10.6666C10.7586 9.16667 10.8333 9.24129 10.8333 9.33333V11.8333H8.49992V9.16667Z" stroke="#FCFCFC" stroke-width="0.333333"/>
<path d="M8.49992 8.83332H10.6666C10.7586 8.83332 10.8333 8.90794 10.8333 8.99999V9.16666H8.49992V8.83332Z" stroke="#FCFCFC" stroke-width="0.333333"/>
<path d="M3.49992 8.33333C3.49992 8.24129 3.57454 8.16667 3.66659 8.16667H5.66658C5.75863 8.16667 5.83325 8.24129 5.83325 8.33333V11.8333H3.49992V8.33333Z" stroke="#FCFCFC" stroke-width="0.333333" stroke-linecap="round" stroke-linejoin="round"/>
<path d="M4.33341 9.16666C4.33341 9.07461 4.2588 8.99999 4.16675 8.99999C4.0747 8.99999 4.00008 9.07461 4.00008 9.16666H4.33341ZM4.00008 9.49999C4.00008 9.59204 4.0747 9.66666 4.16675 9.66666C4.2588 9.66666 4.33341 9.59204 4.33341 9.49999H4.00008ZM4.00008 9.16666V9.49999H4.33341V9.16666H4.00008Z" fill="#FCFCFC"/>
<path d="M4.33341 10.3333C4.33341 10.2413 4.2588 10.1667 4.16675 10.1667C4.0747 10.1667 4.00008 10.2413 4.00008 10.3333H4.33341ZM4.00008 10.6667C4.00008 10.7587 4.0747 10.8333 4.16675 10.8333C4.2588 10.8333 4.33341 10.7587 4.33341 10.6667H4.00008ZM4.00008 10.3333V10.6667H4.33341V10.3333H4.00008Z" fill="#FCFCFC"/>
<path d="M5.16667 9.16666C5.16667 9.07461 5.09205 8.99999 5 8.99999C4.90795 8.99999 4.83333 9.07461 4.83333 9.16666H5.16667ZM4.83333 9.49999C4.83333 9.59204 4.90795 9.66666 5 9.66666C5.09205 9.66666 5.16667 9.59204 5.16667 9.49999H4.83333ZM4.83333 9.16666V9.49999H5.16667V9.16666H4.83333Z" fill="#FCFCFC"/>
<path d="M5.16667 10.3333C5.16667 10.2413 5.09205 10.1667 5 10.1667C4.90795 10.1667 4.83333 10.2413 4.83333 10.3333H5.16667ZM4.83333 10.6667C4.83333 10.7587 4.90795 10.8333 5 10.8333C5.09205 10.8333 5.16667 10.7587 5.16667 10.6667H4.83333ZM4.83333 10.3333V10.6667H5.16667V10.3333H4.83333Z" fill="#FCFCFC"/>
<circle cx="3.66667" cy="2.33332" r="0.666667" stroke="#FCFCFC" stroke-width="0.333333"/>
<path d="M2.33333 3.99999C2.33333 4.09204 2.40795 4.16666 2.5 4.16666C2.59205 4.16666 2.66667 4.09204 2.66667 3.99999H2.33333ZM4.66667 3.99999C4.66667 4.09204 4.74129 4.16666 4.83333 4.16666C4.92538 4.16666 5 4.09204 5 3.99999H4.66667ZM3.06667 2.53332C2.95432 2.61758 2.76726 2.75697 2.61132 2.99087C2.45372 3.22728 2.33333 3.55126 2.33333 3.99999H2.66667C2.66667 3.61539 2.7685 3.35604 2.88868 3.17577C3.01052 2.99301 3.15679 2.8824 3.26667 2.79999L3.06667 2.53332ZM4.06667 2.79999C4.17654 2.8824 4.32281 2.99301 4.44466 3.17577C4.56483 3.35604 4.66667 3.61539 4.66667 3.99999H5C5 3.55126 4.87961 3.22728 4.72201 2.99087C4.56607 2.75697 4.37901 2.61758 4.26667 2.53332L4.06667 2.79999Z" fill="#FCFCFC"/>
</svg>
