<svg width="16" height="16" viewBox="0 0 16 16" fill="none" xmlns="http://www.w3.org/2000/svg">
<circle cx="1.50008" cy="5.50001" r="0.833333" stroke="#EDEFF3" stroke-width="0.333333"/>
<circle cx="11.8334" cy="3.50002" r="1.16667" stroke="#EDEFF3" stroke-width="0.333333"/>
<path d="M1.16675 7.83333C1.16675 7.3 1.83341 7 2.16675 6.83333C2.43212 6.70065 2.80008 6.5 3.33341 6.5C3.82598 6.5 6.631 7.25818 8.28237 7.72421C8.47302 7.77802 8.55444 8.0018 8.44455 8.16663C8.37757 8.2671 8.25571 8.31607 8.13783 8.28987L3.83341 7.33333L6.77603 12.5647C6.81416 12.6324 6.8598 12.6951 6.91219 12.7526C7.60301 13.5103 8.88022 15.0244 8.66675 15.1667C8.31026 15.4043 7.55841 14.71 6.89442 14.0503C6.41322 13.5722 5.9811 13.0446 5.61428 12.4739L4.66675 11L2.78603 12.736C2.60212 12.9058 2.49056 13.1384 2.45868 13.3866C2.36816 14.0915 2.16613 15.0558 1.83341 15.1667C1.47599 15.2858 1.62425 13.7282 1.77877 12.6818C1.81216 12.4557 1.92657 12.2505 2.09738 12.0987L3.33341 11C2.61119 10.2222 1.16675 8.36667 1.16675 7.83333Z" stroke="#EDEFF3" stroke-width="0.333333"/>
<path d="M12.9503 5.02454L13.0171 4.87186L12.9955 4.86237L12.972 4.85929L12.9503 5.02454ZM11.2921 5.31482L11.189 5.18389L11.2921 5.31482ZM11.4304 6.47589L11.5921 6.43572C11.5782 6.3799 11.5366 6.33517 11.4819 6.31739C11.4272 6.29961 11.3672 6.31129 11.3231 6.34829L11.4304 6.47589ZM13.3649 10.2495L13.5253 10.2045C13.51 10.1496 13.4675 10.1063 13.4129 10.0899C13.3582 10.0734 13.299 10.0861 13.2558 10.1234L13.3649 10.2495ZM14.0558 12.7168L13.8953 12.7617L13.8981 12.772L13.9023 12.7817L14.0558 12.7168ZM14.9316 12.8284L15.0855 12.7645L14.9316 12.8284ZM14.8798 12.5971L15.0463 12.5897L14.8798 12.5971ZM12.1712 9.45878L12.0094 9.49895L12.1712 9.45878ZM12.007 10.0792L12.1277 10.1941L12.007 10.0792ZM11.261 12.0693L11.1519 11.9432L11.261 12.0693ZM9.30077 7.80955L9.22123 7.66308L9.30077 7.80955ZM8.93571 7.2661L9.0428 7.39381L8.93571 7.2661ZM12.972 4.85929C12.776 4.83356 12.4584 4.81854 12.1303 4.85528C11.8068 4.89151 11.4468 4.98081 11.189 5.18389L11.3953 5.44574C11.5797 5.3005 11.8645 5.22046 12.1674 5.18655C12.4658 5.15314 12.7562 5.16715 12.9286 5.18979L12.972 4.85929ZM11.189 5.18389C10.7954 5.49394 9.58057 6.50787 8.82862 7.13839L9.0428 7.39381C9.7969 6.76148 11.0068 5.75179 11.3953 5.44574L11.189 5.18389ZM9.3803 7.95602C9.85017 7.70087 10.9858 7.06717 11.5376 6.60349L11.3231 6.34829C10.8022 6.786 9.69917 7.40356 9.22123 7.66308L9.3803 7.95602ZM11.2686 6.51606L12.0094 9.49895L12.3329 9.41861L11.5921 6.43572L11.2686 6.51606ZM11.8863 9.96424L10.388 11.538L10.6294 11.7678L12.1277 10.1941L11.8863 9.96424ZM10.1595 12.1136C10.1652 12.7463 10.1914 13.5831 10.2554 14.2501C10.2872 14.582 10.3291 14.8804 10.3851 15.0921C10.4124 15.1954 10.4469 15.2938 10.4945 15.3657C10.5185 15.402 10.5538 15.444 10.6051 15.4716C10.6628 15.5026 10.7298 15.5092 10.7945 15.4866L10.6844 15.1719C10.7104 15.1628 10.7405 15.1659 10.763 15.178C10.779 15.1866 10.7806 15.1941 10.7725 15.1818C10.7559 15.1567 10.7324 15.1017 10.7073 15.007C10.6586 14.8227 10.6187 14.5466 10.5872 14.2183C10.5245 13.5652 10.4985 12.7393 10.4928 12.1106L10.1595 12.1136ZM10.7945 15.4866C10.8923 15.4523 10.951 15.3692 10.9864 15.3015C11.0244 15.2287 11.0535 15.1391 11.0767 15.0428C11.1235 14.8493 11.1541 14.5974 11.1738 14.3243C11.2133 13.7762 11.211 13.1148 11.195 12.5998L10.8618 12.6101C10.8776 13.12 10.8797 13.7685 10.8413 14.3003C10.822 14.5672 10.793 14.7977 10.7527 14.9646C10.7324 15.0486 10.7111 15.1086 10.691 15.1471C10.6682 15.1905 10.661 15.1801 10.6844 15.1719L10.7945 15.4866ZM11.37 12.1953L13.4739 10.3755L13.2558 10.1234L11.1519 11.9432L11.37 12.1953ZM13.2044 10.2944L13.8953 12.7617L14.2162 12.6718L13.5253 10.2045L13.2044 10.2944ZM13.9023 12.7817C14.0877 13.22 14.387 13.8781 14.6828 14.4285C14.8302 14.7029 14.9796 14.9557 15.1156 15.1418C15.1832 15.2344 15.2517 15.3163 15.3189 15.3767C15.379 15.4306 15.4685 15.4959 15.5757 15.4959V15.1626C15.6001 15.1626 15.5914 15.1734 15.5417 15.1288C15.4992 15.0905 15.4463 15.0295 15.3847 14.9452C15.2622 14.7775 15.1214 14.5405 14.9764 14.2707C14.6872 13.7325 14.3923 13.0844 14.2092 12.6518L13.9023 12.7817ZM15.5757 15.4959C15.634 15.4959 15.6914 15.4762 15.7375 15.4341C15.7801 15.3951 15.8023 15.3469 15.8144 15.3064C15.8376 15.2287 15.8363 15.136 15.8277 15.0485C15.8097 14.8675 15.7503 14.6265 15.6727 14.3682C15.5163 13.8476 15.2734 13.2164 15.0855 12.7645L14.7777 12.8924C14.9637 13.3398 15.2018 13.9591 15.3535 14.4641C15.4299 14.7185 15.4814 14.934 15.496 15.0814C15.5036 15.1581 15.499 15.1975 15.495 15.2109C15.4935 15.216 15.4961 15.2031 15.5126 15.188C15.5325 15.1698 15.5573 15.1626 15.5757 15.1626V15.4959ZM15.0463 12.5897C14.9937 11.4029 14.8367 9.64341 14.5282 8.10593C14.3741 7.33783 14.1809 6.6182 13.9407 6.05124C13.8206 5.76767 13.6867 5.51739 13.5368 5.31702C13.3874 5.11736 13.2156 4.95873 13.0171 4.87186L12.8835 5.17723C13.011 5.23305 13.1408 5.34423 13.2699 5.51673C13.3985 5.68852 13.5201 5.91275 13.6338 6.18125C13.8613 6.71843 14.0493 7.4132 14.2014 8.17151C14.5055 9.68686 14.6612 11.4282 14.7133 12.6045L15.0463 12.5897ZM15.0855 12.7645C15.062 12.7078 15.049 12.6501 15.0463 12.5897L14.7133 12.6045C14.7177 12.7047 14.7396 12.8006 14.7777 12.8924L15.0855 12.7645ZM10.388 11.538C10.2408 11.6926 10.1575 11.8983 10.1595 12.1136L10.4928 12.1106C10.4916 11.9837 10.5407 11.861 10.6294 11.7678L10.388 11.538ZM12.0094 9.49895C12.0506 9.6649 12.0042 9.8404 11.8863 9.96424L12.1277 10.1941C12.3242 9.98769 12.4016 9.69518 12.3329 9.41861L12.0094 9.49895ZM11.195 12.5998C11.1901 12.444 11.2542 12.2955 11.37 12.1953L11.1519 11.9432C10.9582 12.1108 10.8539 12.3567 10.8618 12.6101L11.195 12.5998ZM8.78848 7.86144C8.94134 8.022 9.18315 8.06307 9.3803 7.95602L9.22123 7.66308C9.15882 7.69697 9.0807 7.68496 9.02991 7.6316L8.78848 7.86144ZM8.82862 7.13839C8.60857 7.3229 8.59106 7.65407 8.78848 7.86144L9.02991 7.6316C8.96453 7.56293 8.9708 7.45418 9.0428 7.39381L8.82862 7.13839Z" fill="#EDEFF3"/>
<circle cx="7.99992" cy="5.99999" r="1.5" stroke="#EDEFF3" stroke-width="0.333333"/>
<path d="M8.33325 4.50002L8.49992 4.33335C8.77606 4.05721 9.22378 4.05721 9.49992 4.33335V4.33335C9.77606 4.60949 9.77606 5.05721 9.49992 5.33335L9.33325 5.50002" stroke="#EDEFF3" stroke-width="0.333333"/>
<path d="M9.16675 4.16667C9.33341 4 9.75462 3.75454 10.0001 4C10.2455 4.24547 9.88897 4.55555 9.66675 4.66666" stroke="#EDEFF3" stroke-width="0.333333"/>
<path d="M8.29625 6.12665C8.25609 6.17301 8.20932 6.20623 8.15593 6.22632C8.1029 6.246 8.04661 6.25192 7.98707 6.24409C7.92828 6.2362 7.86985 6.21487 7.81177 6.18009L7.71696 6.28953L7.55249 6.14706L7.64835 6.0364C7.60881 5.98593 7.58113 5.93195 7.56529 5.87448C7.54985 5.81736 7.54703 5.75953 7.55682 5.70098C7.56662 5.64243 7.58904 5.586 7.62409 5.53169L7.80935 5.64772C7.77868 5.70512 7.76846 5.76294 7.77868 5.82119C7.78966 5.87939 7.81933 5.92944 7.86771 5.97134C7.89754 5.99718 7.92874 6.01574 7.9613 6.02702C7.99387 6.0383 8.02434 6.04141 8.05271 6.03635C8.08144 6.03089 8.1047 6.01788 8.12251 5.99732C8.14067 5.97636 8.14903 5.95326 8.1476 5.92803C8.14693 5.90275 8.1367 5.87342 8.11691 5.84006L7.95927 5.58707C7.91441 5.51504 7.89284 5.44626 7.89457 5.38073C7.8963 5.3152 7.92144 5.25441 7.96998 5.19838C8.00909 5.15323 8.05328 5.12095 8.10256 5.10154C8.15183 5.08213 8.20358 5.07615 8.2578 5.08361C8.31237 5.09066 8.36676 5.11096 8.42096 5.14451L8.51525 5.03567L8.67972 5.17815L8.58229 5.29061C8.6329 5.35845 8.66081 5.43131 8.66601 5.5092C8.67197 5.58704 8.6546 5.66655 8.61391 5.74773L8.41841 5.6313C8.44412 5.58371 8.45175 5.53457 8.44131 5.4839C8.43123 5.43283 8.40482 5.38878 8.36209 5.35177C8.33669 5.32977 8.30967 5.31412 8.28103 5.30483C8.25313 5.29549 8.22668 5.29303 8.20167 5.29747C8.17665 5.30191 8.15629 5.3132 8.14057 5.33134C8.12207 5.35271 8.11522 5.37853 8.12004 5.40881C8.12485 5.43909 8.1419 5.47643 8.17117 5.52084L8.28704 5.69742C8.32572 5.75704 8.35155 5.81152 8.36454 5.86088C8.37788 5.90983 8.37891 5.95588 8.36764 5.99904C8.35636 6.04219 8.33257 6.08473 8.29625 6.12665Z" fill="#EDEFF3"/>
</svg>
